<?xml version="1.0" encoding="utf-8"?>
<!-- Generator: Adobe Illustrator 18.0.0, SVG Export Plug-In . SVG Version: 6.00 Build 0)  -->
<!DOCTYPE svg PUBLIC "-//W3C//DTD SVG 1.1//EN" "http://www.w3.org/Graphics/SVG/1.1/DTD/svg11.dtd">
<svg version="1.1" id="Layer_1" xmlns="http://www.w3.org/2000/svg" xmlns:xlink="http://www.w3.org/1999/xlink" x="0px" y="0px"
	 viewBox="0 0 48 48" enable-background="new 0 0 48 48" xml:space="preserve">
<g>
	<path d="M30.8,20.7c0.1,0,0.2,0,0.3-0.1c0,0,4.7-2.7,12.8-3.9c0.3-0.1,0.6-0.4,0.5-0.7c-0.1-0.3-0.4-0.6-0.7-0.5
		c-8.3,1.2-13.1,3.9-13.3,4c-0.3,0.2-0.4,0.6-0.2,0.9C30.4,20.6,30.6,20.7,30.8,20.7z"/>
	<path d="M45.7,22.2c-8.3-1.6-13.7-0.6-13.9-0.5c-0.3,0.1-0.6,0.4-0.5,0.7c0.1,0.3,0.4,0.6,0.7,0.5c0.1,0,5.4-1,13.4,0.5
		c0,0,0.1,0,0.1,0c0.3,0,0.6-0.2,0.6-0.5C46.2,22.6,46,22.3,45.7,22.2z"/>
	<path d="M43.4,30.2c-3-2.1-5.7-3.5-7.8-4.4c0.2-0.3,0.3-0.5,0.3-0.5c0.2-0.5,0-1-0.5-1.3c-0.5-0.2-1,0-1.3,0.5c0,0-0.1,0.3-0.4,0.6
		c-1.7-0.7-2.8-0.9-2.9-0.9c-0.3-0.1-0.7,0.1-0.8,0.5c-0.1,0.3,0.1,0.7,0.5,0.8c0,0,0.9,0.2,2.3,0.7c-0.8,0.8-1.9,1.5-3.5,1.5
		c-0.4,0-0.7,0-1-0.1c0,0,0,0,0,0c0,0,0,0-0.1,0c-2.5-0.4-3.4-2.1-3.4-3c0,0,0-0.1,0-0.1v-2.5c0-0.1,0.2-0.1,0.3-0.2
		c1.1-0.7,2.1-1.6,2.6-2.3c1-1.3,0.5-3-0.1-2.1c-0.7,0.9-2,2.2-4,2.2c-2,0-3-1.2-4-2.2c-0.8-0.7-1.1,1,0.2,2.5
		c0.5,0.6,1.7,1.5,2.5,2.1c0.1,0.1,0.5,0.2,0.5,0.2v2.8c0,0.8-1.1,2.2-3.3,2.6c0,0-0.1,0-0.2,0c0,0-0.1,0-0.1,0
		c-0.3,0-0.6,0.1-1,0.1c-1.5,0-2.6-0.8-3.3-1.5c1.4-0.5,2.1-0.7,2.2-0.7c0.3-0.1,0.6-0.4,0.5-0.8c-0.1-0.3-0.4-0.6-0.8-0.5
		c-0.1,0-1.1,0.3-2.7,0.9c-0.1-0.2-0.2-0.3-0.2-0.3c-0.2-0.5-0.8-0.7-1.3-0.4c-0.5,0.2-0.7,0.8-0.4,1.3c0,0,0,0.1,0.1,0.2
		c-2.1,0.9-4.9,2.4-8,4.5c-0.3,0.2-0.4,0.6-0.2,0.9c0.1,0.2,0.3,0.3,0.5,0.3c0.1,0,0.3,0,0.4-0.1c3.1-2.1,5.9-3.6,8-4.5
		c0.9,1.2,2.7,2.7,5.3,2.7c0.1,0,0.2,0,0.3,0l0.6,3.9c0.1,0.9,0.9,1.6,1.9,1.6h5.2c1,0,1.8-0.7,2-1.7l0.6-3.8c0.1,0,0.3,0,0.4,0
		c2.6,0,4.3-1.4,5.4-2.6c2.1,0.9,4.8,2.3,7.8,4.4c0.1,0.1,0.2,0.1,0.4,0.1c0.2,0,0.4-0.1,0.5-0.3C43.8,30.8,43.7,30.4,43.4,30.2z
		 M20.8,29.2c1-0.3,1.8-0.7,2.5-1.2l0,5.1l-2,0L20.8,29.2z M26.6,33C26.6,33.1,26.6,33.1,26.6,33l-2,0.1l0-5.4
		c0.7,0.7,1.5,1.2,2.7,1.5L26.6,33z"/>
	<path d="M4,16.7c8.1,1.2,12.8,3.9,12.8,3.9c0.1,0.1,0.2,0.1,0.3,0.1c0.2,0,0.4-0.1,0.6-0.3c0.2-0.3,0.1-0.7-0.2-0.9
		c-0.2-0.1-4.9-2.8-13.3-4c-0.4-0.1-0.7,0.2-0.7,0.5C3.5,16.3,3.7,16.7,4,16.7z"/>
	<path d="M16,22.9c0.4,0.1,0.7-0.2,0.7-0.5c0.1-0.3-0.2-0.7-0.5-0.7c-0.2,0-5.6-1-13.9,0.5c-0.3,0.1-0.6,0.4-0.5,0.7
		c0.1,0.3,0.3,0.5,0.6,0.5c0,0,0.1,0,0.1,0C10.6,21.9,15.9,22.9,16,22.9z"/>
</g>
</svg>
