<?xml version="1.0" encoding="utf-8"?>
<!-- Generator: Adobe Illustrator 18.0.0, SVG Export Plug-In . SVG Version: 6.00 Build 0)  -->
<!DOCTYPE svg PUBLIC "-//W3C//DTD SVG 1.1//EN" "http://www.w3.org/Graphics/SVG/1.1/DTD/svg11.dtd">
<svg version="1.1" id="Layer_1" xmlns="http://www.w3.org/2000/svg" xmlns:xlink="http://www.w3.org/1999/xlink" x="0px" y="0px"
	 viewBox="0 0 48 48" enable-background="new 0 0 48 48" xml:space="preserve">
<g>
	<path d="M33.4,37.9c-1.4,0-2.9-0.1-4.5-0.2c-1.6-0.1-3.3-0.2-4.9-0.2c-1.4,0-2.9,0.1-4.3,0.1c-1.4,0.1-2.7,0.1-4,0.1
		c-0.6,0-1.1,0-1.6,0c-2.9-0.2-5.3-1.4-6.8-3.4c-1.1-1.5-2.2-4.1-1.3-8.2c0.9-3.9,3.4-6.3,6-8.9c0.3-0.3,0.6-0.5,0.8-0.8
		c3.3-3.3,6.4-6.3,11.1-6.3c5.3,0,9.3,4.2,11.3,6.7c0.7,0.9,1.4,1.7,2.1,2.5c2,2.3,3.9,4.4,4.6,7.2c0.7,3.1,0.2,6-1.4,8.2
		c-1.5,1.9-3.7,3.1-6.1,3.2C34.1,37.9,33.7,37.9,33.4,37.9z M24,35.6c1.7,0,3.4,0.1,5,0.2c1.9,0.1,3.7,0.3,5.4,0.2
		c1.9-0.1,3.5-1,4.7-2.5c1.3-1.8,1.7-4.1,1.1-6.6c-0.6-2.3-2.3-4.3-4.2-6.4c-0.7-0.8-1.5-1.7-2.2-2.6C32.4,16.1,28.6,12,24,12
		c-3.9,0-6.5,2.5-9.8,5.8c-0.3,0.3-0.6,0.6-0.9,0.9c-2.6,2.6-4.7,4.6-5.5,8c-0.6,2.7-0.3,5,1,6.6c1.2,1.6,3.1,2.5,5.4,2.6
		c1.6,0.1,3.4,0,5.4-0.1C21.1,35.6,22.5,35.6,24,35.6z"/>
	<ellipse transform="matrix(0.6198 -0.7847 0.7847 0.6198 -13.7093 22.0917)" cx="15.9" cy="25.2" rx="5.1" ry="3.5"/>
	<ellipse transform="matrix(-0.6198 -0.7847 0.7847 -0.6198 31.7983 65.795)" cx="31.8" cy="25.2" rx="5" ry="3.5"/>
</g>
</svg>
