<?xml version="1.0" encoding="utf-8"?>
<!-- Generator: Adobe Illustrator 18.0.0, SVG Export Plug-In . SVG Version: 6.00 Build 0)  -->
<!DOCTYPE svg PUBLIC "-//W3C//DTD SVG 1.1//EN" "http://www.w3.org/Graphics/SVG/1.1/DTD/svg11.dtd">
<svg version="1.1" id="Layer_1" xmlns="http://www.w3.org/2000/svg" xmlns:xlink="http://www.w3.org/1999/xlink" x="0px" y="0px"
	 viewBox="0 0 48 48" enable-background="new 0 0 48 48" xml:space="preserve">
<path d="M38,34.6c-8.2-1.9-12.3-4.7-12.9-6.3c0-0.1,0-0.3,0-0.4v-4.1c2-0.6,5.5-2.5,6.3-3.3c0.9-0.9,1-4.7,0-5.9
	c-1-1.2-3.3-2.3-7.4-2.3c-4.2,0-6.4,1.1-7.3,2.3c-1,1.2-0.8,4.8,0,5.9c0.8,0.9,4.4,2.9,6.4,3.4v4c0,2.6-7.6,5.4-13,6.5
	c-0.5,0.1-0.9,0.6-0.7,1.1c0.1,0.5,0.5,0.8,0.9,0.8c0.1,0,0.4,0,0.5,0c0.1,0,2.3-0.6,6.3-1.7v1.8c0,4.1,2.9,7.4,7,7.4s7-3.3,7-7.3
	v-1.8c3,1,5.3,1.6,6.2,1.8c0.1,0,0.3,0,0.4,0c0.4,0,0.9-0.3,1-0.7C38.7,35.2,38.5,34.7,38,34.6z M29,36.5c0,3-2,5.4-5,5.4
	s-5-2.4-5-5.5v-2.5c2-0.8,3-1.6,4-2.5v6.1c0,0.5,0.5,1,1,1s1-0.4,1-1v-6.2c1,0.9,3,1.8,4,2.5V36.5z"/>
</svg>
