<?xml version="1.0"?>
<svg xmlns="http://www.w3.org/2000/svg" xmlns:xlink="http://www.w3.org/1999/xlink" version="1.1" id="Capa_1" x="0px" y="0px" viewBox="0 0 512 512" style="enable-background:new 0 0 512 512;" xml:space="preserve" width="512px" height="512px"><g><g>
	<g>
		<path d="M481.955,183.707C480.993,137.665,443.268,100.5,397,100.5c-16.107,0-31.792,4.535-45.356,13.115    c-2.205,1.392-5.122,0.912-6.79-1.117C322.905,85.808,290.52,70.5,256,70.5c-34.52,0-66.905,15.308-88.854,41.998    c-1.668,2.029-4.589,2.509-6.789,1.117c-13.565-8.58-29.25-13.115-45.357-13.115c-46.268,0-83.993,37.165-84.955,83.207L0,324.922    v1.578c0,33.17,28.354,63.203,79.839,84.565C127.138,430.691,189.699,441.5,256,441.5s128.862-10.809,176.161-30.435    C483.646,389.703,512,359.67,512,326.5v-1.578L481.955,183.707z M398.775,242.656C360.89,260.612,310.185,270.5,256,270.5    s-104.89-9.888-142.775-27.844C79.399,226.625,60,205.793,60,185.5c0-30.327,24.673-55,55-55c10.422,0,20.561,2.929,29.321,8.47    c14.961,9.463,34.737,6.276,45.997-7.417C206.546,111.818,230.486,100.5,256,100.5c25.514,0,49.454,11.318,65.682,31.053    c11.26,13.692,31.035,16.879,45.998,7.416c8.76-5.541,18.898-8.469,29.32-8.469c30.327,0,55,24.673,55,55    C452,205.793,432.601,226.625,398.775,242.656z" data-original="#000000" class="active-path" data-old_color="#15d2bb" fill="#15d2bb"/>
	</g>
</g><g>
	<g>
		<circle cx="157" cy="186.5" r="20" data-original="#000000" class="active-path" data-old_color="#15d2bb" fill="#15d2bb"/>
	</g>
</g><g>
	<g>
		<circle cx="221" cy="220.5" r="20" data-original="#000000" class="active-path" data-old_color="#15d2bb" fill="#15d2bb"/>
	</g>
</g><g>
	<g>
		<circle cx="268" cy="163.5" r="20" data-original="#000000" class="active-path" data-old_color="#15d2bb" fill="#15d2bb"/>
	</g>
</g><g>
	<g>
		<circle cx="365" cy="201.5" r="20" data-original="#000000" class="active-path" data-old_color="#15d2bb" fill="#15d2bb"/>
	</g>
</g></g> </svg>
