<?xml version="1.0"?>
<svg xmlns="http://www.w3.org/2000/svg" viewBox="0 1 511.99988 511" width="512px" height="512px"><g><path d="m507.675781 110.089844-105.265625-105.265625c-5.765625-5.765625-15.117187-5.765625-20.886718 0-5.769532 5.769531-5.769532 15.121093 0 20.886719l15.871093 15.875-67.875 67.875 73.515625 73.519531 67.878906-67.875 15.875 15.871093c2.882813 2.882813 6.664063 4.328126 10.441407 4.328126 3.777343 0 7.558593-1.441407 10.441406-4.328126 5.769531-5.769531 5.769531-15.117187.003906-20.886718zm0 0" data-original="#000000" class="active-path" data-old_color="#15d2bb" fill="#15d2bb"/><path d="m257.671875 79.386719c-5.765625-5.765625-15.117187-5.765625-20.886719 0-5.769531 5.769531-5.769531 15.121093 0 20.886719l24.644532 24.644531-31.746094 31.746093 45.53125 45.53125c5.769531 5.769532 5.769531 15.121094 0 20.886719-2.882813 2.886719-6.664063 4.328125-10.441406 4.328125-3.78125 0-7.5625-1.441406-10.445313-4.328125l-45.53125-45.53125-31.746094 31.746094 45.53125 45.53125c5.769531 5.769531 5.769531 15.121094 0 20.886719-2.882812 2.886718-6.664062 4.328125-10.441406 4.328125-3.78125 0-7.5625-1.441407-10.445313-4.328125l-45.527343-45.53125-39.066407 39.066406c-3.617187 3.613281-6.523437 7.742188-8.667968 12.21875l122.570312 122.570312c4.429688-2.109374 8.585938-4.976562 12.246094-8.640624l144.332031-144.328126 24.644531 24.644532c2.882813 2.882812 6.664063 4.328125 10.441407 4.328125 3.777343 0 7.558593-1.441407 10.441406-4.328125 5.769531-5.765625 5.769531-15.117188 0-20.886719zm0 0" data-original="#000000" class="active-path" data-old_color="#15d2bb" fill="#15d2bb"/><path d="m75.269531 346.167969c-13.4375 13.4375-13.4375 35.300781 0 48.738281l10.71875 10.71875-81.664062 81.664062c-5.765625 5.765626-5.765625 15.117188 0 20.886719 2.886719 2.882813 6.664062 4.324219 10.445312 4.324219 3.777344 0 7.558594-1.441406 10.441407-4.328125l81.664062-81.660156 10.71875 10.71875c6.507812 6.507812 15.164062 10.09375 24.367188 10.09375 9.207031 0 17.863281-3.585938 24.371093-10.09375l28.042969-28.042969-91.0625-91.066406zm0 0" data-original="#000000" class="active-path" data-old_color="#15d2bb" fill="#15d2bb"/></g> </svg>
