<?xml version="1.0"?>
<svg xmlns="http://www.w3.org/2000/svg" xmlns:xlink="http://www.w3.org/1999/xlink" version="1.1" id="Capa_1" x="0px" y="0px" viewBox="0 0 237 237" style="enable-background:new 0 0 237 237;" xml:space="preserve" width="512px" height="512px"><g><path d="M237,77.5h-15v-12H120v12H0v82h120v12h102v-12h15V77.5z M41.667,129.871c-6.28,0-11.371-5.091-11.371-11.371  s5.091-11.371,11.371-11.371s11.371,5.091,11.371,11.371S47.947,129.871,41.667,129.871z M97.667,129.871  c-6.28,0-11.371-5.091-11.371-11.371s5.091-11.371,11.371-11.371s11.371,5.091,11.371,11.371S103.947,129.871,97.667,129.871z   M192,107.5h-23v22h23v12h-42v-46h42V107.5z" data-original="#000000" class="active-path" data-old_color="#15d2bb" fill="#15d2bb"/></g> </svg>
