<?xml version="1.0"?>
<svg xmlns="http://www.w3.org/2000/svg" xmlns:xlink="http://www.w3.org/1999/xlink" version="1.1" id="Capa_1" x="0px" y="0px" viewBox="0 0 511.996 511.996" style="enable-background:new 0 0 511.996 511.996;" xml:space="preserve" width="512px" height="512px"><g><g>
	<g>
		<g>
			<path d="M4.668,106.009c-4.239,2.388-5.873,7.672-3.723,12.036L43.45,204.21c2.153,4.465,7.504,6.358,11.986,4.241l6.982-3.262     L14.19,100.696L4.668,106.009z" data-original="#000000" class="active-path" data-old_color="#15d2bb" fill="#15d2bb"/>
			<rect x="109.713" y="471.746" width="292.571" height="18.286" data-original="#000000" class="active-path" data-old_color="#15d2bb" fill="#15d2bb"/>
			<path d="M255.999,78.603c67.227,0,114.767-24.406,118.493-47.399l-16.408-9.239c-12.75,21.107-53.652,34.879-102.085,34.879     c-48.433,0-89.335-13.772-101.781-34.272l-16.62,9.273C142.518,54.876,189.719,78.603,255.999,78.603z" data-original="#000000" class="active-path" data-old_color="#15d2bb" fill="#15d2bb"/>
			<path d="M390.947,40.47c-11.183,32.448-66.379,56.419-134.949,56.419c-68.206,0-123.205-23.713-134.794-55.898L30.209,91.759     l48.78,105.689l17.711-8.274c2.832-1.323,6.144-1.108,8.781,0.571s4.233,4.589,4.232,7.715v256h292.571v-256     c-0.001-3.126,1.595-6.036,4.232-7.715c2.637-1.679,5.949-1.894,8.781-0.571l17.712,8.274l48.829-105.797L390.947,40.47z      M333.445,270.576c-14.469,30.505-51.598,58.009-72.433,71.674c-3.045,1.994-6.982,1.994-10.027,0     c-20.835-13.665-57.964-41.17-72.54-71.897c-19.272-37.906-18.589-75.536,1.848-95.647c11.27-10.893,27.047-15.778,42.5-13.161     c13.164,2.27,25.006,9.374,33.205,19.92c8.2-10.546,20.042-17.649,33.205-19.92c15.452-2.606,31.225,2.278,42.5,13.161     C352.142,194.817,352.825,232.446,333.445,270.576z" data-original="#000000" class="active-path" data-old_color="#15d2bb" fill="#15d2bb"/>
			<path d="M292.146,179.594c-12.477,2.62-22.912,11.125-27.995,22.817c-1.724,2.855-4.816,4.601-8.152,4.601     c-3.335,0-6.428-1.745-8.152-4.601c-5.084-11.692-15.518-20.196-27.995-22.817c-9.693-1.576-19.57,1.433-26.737,8.147     c-14.188,13.96-13.473,44.616,1.741,74.549c11.973,25.237,43.723,49.406,61.143,61.308c17.42-11.902,49.156-36.049,61.036-61.085     c15.321-30.156,16.036-60.812,1.848-74.772C311.729,181.003,301.841,177.99,292.146,179.594z" data-original="#000000" class="active-path" data-old_color="#15d2bb" fill="#15d2bb"/>
			<path d="M507.329,106.004l-9.502-5.351L449.58,205.188l7.003,3.272c4.479,2.097,9.812,0.203,11.964-4.25l42.5-86.165     C513.201,113.681,511.569,108.394,507.329,106.004z" data-original="#000000" class="active-path" data-old_color="#15d2bb" fill="#15d2bb"/>
		</g>
	</g>
</g></g> </svg>
