<?xml version="1.0" encoding="utf-8"?>
<!-- Generator: Adobe Illustrator 18.0.0, SVG Export Plug-In . SVG Version: 6.00 Build 0)  -->
<!DOCTYPE svg PUBLIC "-//W3C//DTD SVG 1.1//EN" "http://www.w3.org/Graphics/SVG/1.1/DTD/svg11.dtd">
<svg version="1.1" id="Layer_1" xmlns="http://www.w3.org/2000/svg" xmlns:xlink="http://www.w3.org/1999/xlink" x="0px" y="0px"
	 viewBox="0 0 48 48" enable-background="new 0 0 48 48" xml:space="preserve">
<g>
	<path d="M29.4,29.1c-2.6,0-4-1.5-4.4-3.2c0-0.2,0-0.5,0-0.7v-1.6c0,0,0.2-0.1,0.2-0.1c0.6-0.5,3.4-3.4,2.5-4.2
		c-0.4-0.4-1.7,1.5-3.8,1.5c-2.2,0-3.3-1.9-4.1-1.5c-0.8,0.4,2.2,3.7,2.8,4.2c0.1,0.1,0.4,0.1,0.4,0.2v1.5c0,1.7-1.3,4.2-4.1,4.2
		c-0.5,0-0.9,0.4-0.9,1c0,0.5,0.4,1,1,1c2.4,0,4.2-1.2,5.2-2.9c1.1,1.5,2.9,2.6,5.3,2.6c0.5,0,1-0.4,1-1
		C30.4,29.5,30,29.1,29.4,29.1z"/>
	<path d="M31.2,21.2c0.1,0,0.2,0,0.3-0.1c0,0,3.8-2.1,10.2-3.1c0.3-0.1,0.6-0.4,0.5-0.7c-0.1-0.3-0.4-0.6-0.7-0.5
		c-6.7,1-10.5,3.2-10.7,3.3c-0.3,0.2-0.4,0.6-0.2,0.9C30.8,21.1,31,21.2,31.2,21.2z"/>
	<path d="M32.4,22.3c-0.3,0.1-0.5,0.5-0.4,0.8c0.1,0.3,0.3,0.4,0.6,0.4c0.1,0,0.1,0,0.2,0c0,0,4.1-1.5,10.6-1.3
		c0.4,0,0.6-0.3,0.7-0.6c0-0.4-0.3-0.6-0.6-0.7C36.7,20.8,32.6,22.3,32.4,22.3z"/>
	<path d="M43.7,25.5c-6.6-1.5-11-0.8-11.1-0.8c-0.3,0.1-0.6,0.4-0.5,0.7c0.1,0.3,0.4,0.6,0.7,0.5c0,0,4.3-0.7,10.7,0.8
		c0,0,0.1,0,0.1,0c0.3,0,0.6-0.2,0.6-0.5C44.2,25.9,44,25.5,43.7,25.5z"/>
	<path d="M41.4,29.4C35.1,27,30.7,27,30.5,27c-0.4,0-0.6,0.2-0.6,0.5c0,0.3,0.3,0.4,0.6,0.4c0,0,0,0,0,0c0.1,0,4.3,0.2,10.4,2.5
		c0.1,0,0.2,0.2,0.2,0.2c0.3,0,0.5-0.1,0.6-0.4C41.9,29.9,41.7,29.6,41.4,29.4z"/>
	<path d="M6.5,18c6.4,0.9,10.2,3.1,10.2,3.1c0.1,0.1,0.2,0.1,0.3,0.1c0.2,0,0.4-0.1,0.6-0.3c0.2-0.3,0.1-0.7-0.2-0.9
		c-0.2-0.1-4-2.3-10.7-3.3c-0.4-0.1-0.7,0.2-0.7,0.5C6,17.6,6.2,17.9,6.5,18z"/>
	<path d="M4.8,22.3c6.5-0.2,10.6,1.3,10.6,1.3c0.1,0,0.1,0,0.2,0c0.3,0,0.5-0.2,0.6-0.4c0.1-0.3,0-0.7-0.4-0.8
		c-0.2-0.1-4.3-1.5-11.1-1.4c-0.4,0-0.6,0.3-0.6,0.7C4.2,22,4.5,22.2,4.8,22.3z"/>
	<path d="M15.6,25.9c0.3,0.1,0.7-0.2,0.7-0.5c0.1-0.3-0.2-0.7-0.5-0.7c-0.2,0-4.5-0.7-11.1,0.8c-0.3,0.1-0.6,0.4-0.5,0.8
		c0.1,0.3,0.3,0.5,0.6,0.5c0,0,0.1,0,0.1,0C11.3,25.3,15.5,25.9,15.6,25.9z"/>
	<path d="M18.4,27.6c0-0.4-0.3-0.5-0.6-0.5c-0.2,0-4.6,0-10.9,2.4c-0.3,0.1-0.5,0.5-0.4,0.8c0.1,0.3,0.3,0.4,0.6,0.4
		c0.1,0,0.2-0.2,0.2-0.2c5.9-2.3,10.1-2.5,10.4-2.5c0,0,0,0,0,0C18.1,28,18.4,27.9,18.4,27.6z"/>
</g>
</svg>
