<?xml version="1.0" encoding="utf-8"?>
<!-- Generator: Adobe Illustrator 18.0.0, SVG Export Plug-In . SVG Version: 6.00 Build 0)  -->
<!DOCTYPE svg PUBLIC "-//W3C//DTD SVG 1.1//EN" "http://www.w3.org/Graphics/SVG/1.1/DTD/svg11.dtd">
<svg version="1.1" id="Layer_1" xmlns="http://www.w3.org/2000/svg" xmlns:xlink="http://www.w3.org/1999/xlink" x="0px" y="0px"
	 viewBox="0 0 146 54" enable-background="new 0 0 146 54" xml:space="preserve">
<g>
	<g>
		<g>
			<path fill="#15D2BB" d="M74.7,15.8c-3,0-5.6,1.2-7.7,3.7v-3.2h-3.1v28.4H67V34.2c2.3,2.5,4.9,3.8,7.9,3.8s5.5-1.1,7.6-3.3
				c2.1-2.2,3.1-4.8,3.1-7.9s-1.1-5.6-3.2-7.8C80.3,16.9,77.7,15.8,74.7,15.8z M80.1,32.6c-1.6,1.6-3.4,2.4-5.5,2.4
				c-2.2,0-4-0.8-5.6-2.3c-1.5-1.6-2.3-3.5-2.3-5.7s0.7-4.2,2.3-5.7c1.5-1.6,3.3-2.3,5.5-2.3s4.1,0.8,5.6,2.4
				c1.5,1.6,2.3,3.5,2.3,5.7C82.5,29.1,81.7,31,80.1,32.6z M89.8,37.2h3.1V8.4h-3.1V37.2z M115.8,19.5c-2.1-2.5-4.7-3.7-7.7-3.7
				s-5.6,1.1-7.8,3.2c-2.1,2.2-3.2,4.8-3.2,7.8s1.1,5.6,3.2,7.9c2.1,2.2,4.7,3.3,7.7,3.3s5.6-1.3,7.9-3.8v3.1h3.1v-21h-3.1
				L115.8,19.5L115.8,19.5z M113.7,32.7c-1.5,1.5-3.4,2.3-5.5,2.3c-2.2,0-4-0.8-5.5-2.4c-1.5-1.6-2.3-3.5-2.3-5.7
				c0-2.2,0.7-4.1,2.3-5.7c1.5-1.6,3.4-2.4,5.5-2.4c2.2,0,4,0.8,5.5,2.3c1.5,1.6,2.3,3.5,2.3,5.8C116,29.2,115.2,31.1,113.7,32.7z
				 M135.2,35c-2.5,0-4.5-0.8-6-2.4c-1.6-1.6-2.4-3.5-2.4-5.8s0.8-4.1,2.4-5.7c1.6-1.5,3.6-2.3,6-2.3c3,0,5.5,1.2,7.4,3.6l2.5-1.6
				c-1-1.6-2.3-2.8-4.1-3.8c-1.7-0.9-3.6-1.3-5.7-1.3c-3.5,0-6.3,1.1-8.4,3.3c-2.2,2.2-3.3,4.8-3.3,7.9s1.1,5.7,3.2,7.8
				c2.2,2.1,4.9,3.2,8.1,3.2c2.1,0,4-0.4,5.8-1.3s3.2-2.1,4.3-3.7l-2.5-1.7C140.6,33.7,138.1,35,135.2,35z"/>
		</g>
	</g>
	<g>
		<g id="plac_1_">
			<g id="pato_1_">
				<path fill="#15D2BB" d="M26.1,27.7c0,1.3,1.1,2.4,2.4,2.4c1.3,0,2.4-1.1,2.4-2.4c0-1.3-1.1-2.4-2.4-2.4
					C27.2,25.3,26.1,26.4,26.1,27.7"/>
				<g>
					<path fill="#15D2BB" d="M45.2,48.8c0.2-0.2,0.4-0.4,0.5-0.6c0.6-0.5,1.1-1.2,1.7-1.8c1-1.2,2-2.4,2.8-3.7
						c0.8-1.3,1.6-2.7,2.1-4.2c0.6-1.5,1.1-3,1.4-4.6c0.3-1.6,0.5-3.2,0.5-4.9c0-0.2,0-0.4,0-0.6C54.2,13.9,42.3,2,27.6,2
						C12.9,2,1,13.9,1,28.6C1,38.7,6.7,47.5,15,52l1.1-0.1c0.9-0.2,2.6-0.9,5-2.5c0,0,2.9-1.5,3.7-5.2c0,0,0.9-3.5-2.2-6.1
						c0,0-5.6,4.2-12.7-1c0,0-2.3-2.1,0.1-2.6c0,0,3.6,0.1,5.7-1.3c0,0,2.8-1.9,2.8-4.7c0,0,1.4-9.7,11.2-9.6
						C37,19,42.1,27,39.4,33.6c-1.1,3.1-0.5,6.6,0.7,9.6c0.5,1.1,1.5,3.4,2.7,4.7c0.5,0.5,1,1.4,1.6,1.5c0,0,0.1,0,0.1,0 M23.2,17.3
						c-0.4,0.5-1,0.6-1.4,0.3l-6.9-6.5c-0.3-0.3-0.2-0.9,0.3-1.4c0.4-0.5,1-0.6,1.4-0.3l6.9,6.5C23.8,16.2,23.6,16.9,23.2,17.3
						 M30,15.6c0,0.4-0.5,0.7-1.2,0.7c-0.6,0-1.2-0.3-1.2-0.7l0-9.5c0-0.4,0.5-0.7,1.2-0.7S30,5.7,30,6.1L30,15.6z M42.7,10.8
						L36,17.6c-0.3,0.3-0.9,0.1-1.4-0.3c-0.4-0.4-0.6-1.1-0.3-1.4l6.8-6.7c0.3-0.3,0.9-0.1,1.4,0.3C42.9,9.9,43,10.5,42.7,10.8"/>
				</g>
			</g>
		</g>
	</g>
</g>
</svg>
