<?xml version="1.0"?>
<svg xmlns="http://www.w3.org/2000/svg" xmlns:xlink="http://www.w3.org/1999/xlink" version="1.1" id="Capa_1" x="0px" y="0px" viewBox="0 0 512 512" style="enable-background:new 0 0 512 512;" xml:space="preserve" width="512px" height="512px"><g><g>
	<g>
		<path d="M429.575,100l-10-100h-87.149l-10,100H251v412h250V100H429.575z M359.575,30h32.851l7,70h-46.851L359.575,30z M471,366    H281V246h190V366z" data-original="#000000" class="active-path" data-old_color="#15d2bb" fill="#15d2bb"/>
	</g>
</g><g>
	<g>
		<path d="M221,175C221,76.869,174.878,0,116,0S11,76.869,11,175c0,74.401,26.516,136.568,65,162.29v27.309    c0,25.228,0,51.314-9.08,74.468c-5.931,15.124-3.401,32.496,6.942,47.662C84.332,502.081,100.872,512,116,512    c15.164,0,31.711-9.896,42.155-25.21c10.345-15.169,12.869-32.563,6.924-47.722C156,415.914,156,389.827,156,364.599V337.29    C194.484,311.568,221,249.401,221,175z M171,175c0,11.046-8.954,20-20,20s-20-8.954-20-20s8.954-20,20-20S171,163.954,171,175z     M146,85c11.046,0,20,8.954,20,20s-8.954,20-20,20s-20-8.954-20-20S134.954,85,146,85z M86,85c11.046,0,20,8.954,20,20    s-8.954,20-20,20s-20-8.954-20-20S74.954,85,86,85z M61,175c0-11.046,8.954-20,20-20s20,8.954,20,20s-8.954,20-20,20    S61,186.046,61,175z M66,245c0-11.046,8.954-20,20-20s20,8.954,20,20s-8.954,20-20,20S66,256.046,66,245z M133.37,469.887    C128.005,477.754,120.416,482,116,482c-4.387,0-11.96-4.267-17.353-12.174c-2.208-3.237-6.998-11.647-3.798-19.806    C106,421.585,106,391.311,106,364.599v-15.36c3.288,0.496,6.622,0.761,10,0.761s6.712-0.265,10-0.761v15.36    c0,26.712,0,56.986,11.15,85.421C140.369,458.228,135.579,466.648,133.37,469.887z M146,265c-11.046,0-20-8.954-20-20    c0-11.046,8.954-20,20-20s20,8.954,20,20S157.046,265,146,265z" data-original="#000000" class="active-path" data-old_color="#15d2bb" fill="#15d2bb"/>
	</g>
</g></g> </svg>
